<?xml version="1.0" standalone="no"?>
<!DOCTYPE svg PUBLIC "-//W3C//DTD SVG 20010904//EN"
 "http://www.w3.org/TR/2001/REC-SVG-20010904/DTD/svg10.dtd">
<svg version="1.0" xmlns="http://www.w3.org/2000/svg"
 width="2048.000000pt" height="2048.000000pt" viewBox="0 0 2048.000000 2048.000000"
 preserveAspectRatio="xMidYMid meet">
<metadata>
Created by potrace 1.14, written by Peter Selinger 2001-2017
</metadata>
<g transform="translate(0.000000,2048.000000) scale(0.100000,-0.100000)"
fill="#000000" stroke="none">
<path d="M12113 19459 c-12 -12 -99 -21 -193 -20 -30 1 -71 -3 -90 -8 -35 -9
-83 -18 -265 -46 -55 -9 -118 -22 -140 -30 -22 -7 -56 -17 -75 -20 -19 -4 -39
-11 -45 -15 -5 -4 -26 -7 -46 -7 -20 -1 -50 -8 -67 -17 -17 -9 -40 -16 -51
-16 -11 0 -22 -4 -26 -9 -3 -6 -26 -13 -50 -17 -25 -3 -48 -10 -51 -15 -3 -5
-17 -9 -31 -9 -13 0 -36 -9 -50 -20 -14 -11 -34 -20 -45 -20 -43 0 -268 -77
-293 -100 -11 -10 -42 -24 -70 -31 -52 -12 -108 -31 -160 -54 -16 -8 -46 -20
-65 -28 -58 -24 -84 -36 -115 -57 -49 -32 -98 -57 -126 -63 -14 -4 -42 -18
-63 -32 -20 -14 -45 -25 -56 -25 -10 0 -38 -15 -62 -33 -51 -38 -91 -57 -120
-57 -12 0 -29 -6 -37 -14 -9 -8 -54 -34 -101 -58 -99 -51 -126 -68 -200 -124
-30 -23 -65 -44 -78 -48 -12 -4 -43 -23 -67 -42 -25 -19 -50 -34 -55 -34 -6 0
-20 -11 -32 -25 -12 -14 -27 -25 -33 -25 -7 0 -20 -9 -30 -20 -11 -12 -35 -28
-54 -38 -41 -19 -103 -65 -144 -105 -15 -16 -42 -34 -60 -42 -35 -14 -157
-109 -170 -131 -4 -8 -32 -25 -60 -39 -29 -13 -60 -33 -69 -42 -43 -47 -70
-73 -133 -128 -38 -33 -124 -115 -190 -182 -67 -68 -126 -123 -131 -123 -14 0
-64 -53 -64 -67 0 -6 -43 -54 -95 -106 -52 -52 -95 -99 -95 -104 0 -6 -15 -22
-34 -37 -19 -14 -38 -36 -42 -48 -4 -13 -24 -38 -45 -56 -22 -19 -39 -38 -39
-44 0 -5 -16 -28 -35 -51 -19 -22 -35 -46 -35 -53 0 -8 -9 -18 -20 -24 -11 -6
-27 -25 -35 -43 -17 -37 -30 -59 -66 -107 -49 -67 -130 -209 -160 -282 -16
-40 -39 -82 -49 -93 -11 -12 -20 -26 -20 -32 0 -6 -6 -24 -14 -40 -16 -30 -35
-76 -56 -133 -7 -19 -24 -59 -38 -88 -21 -45 -24 -61 -18 -109 4 -32 9 -67 12
-80 4 -16 2 -23 -9 -23 -8 0 -21 -7 -28 -17 -8 -9 -29 -22 -47 -30 -50 -21
-139 -80 -145 -98 -4 -8 -15 -15 -25 -15 -20 0 -152 -97 -152 -112 0 -5 -10
-12 -23 -17 -12 -5 -44 -25 -70 -45 -26 -20 -51 -36 -56 -36 -5 0 -37 -22 -71
-50 -34 -27 -67 -50 -73 -50 -6 0 -30 -19 -53 -42 -44 -44 -83 -78 -144 -126
-19 -14 -39 -33 -44 -41 -20 -32 -79 -91 -92 -91 -8 0 -25 -17 -38 -38 -13
-21 -36 -46 -51 -56 -15 -10 -33 -32 -40 -50 -8 -18 -25 -41 -39 -50 -14 -9
-34 -33 -45 -54 -11 -20 -36 -50 -55 -65 -20 -15 -36 -34 -36 -42 0 -7 -18
-28 -40 -45 -22 -17 -40 -36 -40 -42 0 -6 -21 -34 -47 -62 -73 -80 -163 -192
-163 -203 0 -6 -14 -29 -30 -51 -17 -23 -30 -49 -30 -58 0 -9 -10 -27 -22 -40
-67 -68 -77 -81 -84 -109 -4 -16 -19 -55 -35 -85 -15 -30 -31 -67 -34 -82 -4
-15 -13 -32 -21 -39 -8 -6 -14 -15 -14 -20 0 -5 -17 -46 -39 -91 -21 -46 -41
-99 -45 -119 -3 -19 -17 -51 -31 -69 -14 -19 -25 -43 -25 -54 0 -29 -21 -86
-42 -116 -10 -13 -18 -36 -18 -50 0 -14 -9 -42 -20 -63 -11 -20 -20 -52 -20
-69 -1 -18 -7 -44 -15 -58 -8 -14 -14 -39 -15 -56 0 -18 -7 -56 -16 -85 -30
-102 -43 -154 -54 -214 -6 -33 -17 -82 -25 -110 -7 -27 -16 -86 -20 -130 -3
-44 -11 -101 -17 -127 -8 -33 -8 -64 -1 -111 9 -50 8 -81 -3 -137 -7 -41 -11
-90 -8 -109 3 -20 1 -49 -5 -64 -8 -21 -8 -40 0 -70 7 -23 13 -82 15 -132 5
-130 19 -247 32 -271 6 -12 14 -63 16 -113 4 -72 10 -98 27 -122 11 -16 23
-49 26 -72 3 -23 12 -54 19 -69 8 -15 14 -36 14 -47 0 -11 6 -32 14 -48 36
-72 56 -125 51 -133 -5 -8 80 -183 102 -212 6 -7 14 -26 20 -43 8 -27 6 -33
-25 -60 -18 -16 -43 -41 -55 -54 -12 -13 -34 -36 -49 -50 -16 -14 -28 -31 -28
-37 0 -6 -8 -18 -18 -27 -10 -9 -28 -36 -41 -59 -12 -24 -26 -50 -31 -58 -36
-61 -55 -121 -67 -216 -4 -35 -11 -45 -41 -62 -21 -11 -55 -24 -77 -27 -65
-12 -152 -68 -232 -148 -17 -18 -43 -43 -57 -57 -14 -14 -26 -33 -26 -41 0 -9
-16 -34 -36 -57 -39 -46 -41 -85 -5 -97 27 -8 42 1 81 51 19 24 77 86 128 138
85 86 98 95 168 119 68 24 76 24 80 9 3 -9 12 -29 20 -44 8 -14 14 -38 14 -52
0 -13 11 -46 25 -72 14 -26 25 -55 25 -64 0 -20 27 -77 41 -85 22 -14 6 -52
-39 -89 -50 -41 -112 -120 -138 -176 -9 -19 -28 -57 -42 -84 -19 -38 -23 -58
-19 -94 3 -26 1 -54 -4 -64 -13 -24 0 -77 22 -89 39 -20 86 68 80 151 -1 14
12 50 28 80 17 30 31 62 31 70 0 19 117 150 134 150 16 0 46 -32 46 -49 0 -19
49 -79 70 -86 11 -3 21 -14 24 -23 11 -34 96 -108 163 -142 37 -19 81 -45 96
-57 16 -13 36 -23 45 -23 20 0 148 -63 172 -85 9 -8 28 -14 41 -13 13 1 49
-11 79 -27 30 -15 67 -34 82 -42 14 -7 43 -13 64 -13 22 0 55 -10 81 -26 25
-14 51 -23 60 -20 9 4 22 1 29 -5 22 -18 87 -49 104 -49 9 0 31 -11 50 -25 19
-14 44 -25 56 -25 13 0 26 -4 29 -10 3 -5 14 -10 24 -10 10 0 32 -7 49 -16 18
-8 36 -13 40 -10 9 6 108 -26 152 -49 14 -7 52 -22 85 -34 33 -12 74 -29 90
-38 17 -9 64 -33 106 -55 43 -21 79 -45 82 -53 3 -7 39 -24 79 -35 40 -12 80
-28 88 -34 8 -7 40 -22 70 -33 86 -32 213 -167 183 -193 -4 -4 -28 -15 -52
-24 -55 -21 -89 -47 -115 -89 -27 -42 -56 -106 -56 -122 0 -7 -7 -18 -15 -25
-8 -7 -15 -19 -15 -27 0 -27 -151 -163 -182 -163 -6 0 -26 -10 -46 -22 -19
-11 -51 -25 -71 -29 -20 -4 -54 -13 -76 -19 -22 -6 -56 -15 -75 -19 -19 -4
-45 -13 -56 -19 -12 -6 -52 -12 -90 -13 -38 -1 -80 -6 -94 -12 -58 -22 -245
-23 -297 -1 -100 43 -123 54 -123 62 0 12 -68 55 -137 87 -32 15 -65 31 -73
36 -47 29 -77 49 -89 61 -8 7 -30 22 -47 33 -18 11 -63 50 -101 86 -37 36 -80
72 -95 80 -129 68 -156 84 -179 103 -17 14 -47 25 -77 29 -28 3 -68 15 -89 26
-89 45 -157 62 -263 66 -58 2 -147 7 -198 11 -53 4 -104 2 -120 -3 -15 -6 -54
-18 -87 -28 -33 -10 -71 -28 -85 -41 -14 -12 -35 -27 -48 -33 -30 -16 -62 -69
-62 -102 0 -26 -30 -46 -95 -63 -36 -10 -80 -60 -94 -106 -7 -25 -17 -53 -22
-63 -5 -10 -7 -39 -3 -66 6 -46 5 -49 -20 -55 -40 -10 -106 -105 -124 -179
-32 -135 -8 -264 71 -378 10 -13 17 -30 17 -37 0 -8 14 -31 30 -51 41 -48 44
-52 62 -81 77 -123 111 -169 135 -185 15 -10 60 -50 99 -89 39 -39 95 -91 124
-116 29 -25 60 -53 69 -64 9 -10 34 -27 56 -37 22 -10 51 -27 65 -38 47 -36
151 -101 163 -101 7 -1 28 -14 47 -30 21 -19 46 -30 65 -31 16 0 53 -13 80
-29 28 -16 64 -36 82 -45 17 -8 34 -19 37 -24 4 -5 23 -15 43 -22 20 -6 62
-26 92 -44 31 -18 67 -36 81 -40 14 -4 60 -20 102 -36 43 -16 87 -29 99 -29
12 0 41 -11 63 -23 56 -33 290 -102 307 -92 5 4 16 2 22 -4 16 -13 124 -30
149 -23 39 10 118 -47 118 -85 0 -64 55 -112 106 -93 17 7 32 6 47 -2 40 -21
151 -40 227 -39 41 1 102 1 135 1 33 0 75 5 95 11 19 6 60 14 92 18 l56 7 17
-111 c9 -60 20 -127 26 -147 5 -21 7 -49 3 -63 -4 -15 0 -42 9 -63 30 -76 57
-168 57 -198 0 -17 8 -42 18 -55 25 -33 61 -124 72 -181 5 -27 17 -60 27 -74
25 -39 52 -124 39 -124 -6 0 -24 -13 -41 -30 -16 -16 -43 -42 -60 -58 -44 -41
-82 -86 -99 -119 -8 -16 -22 -35 -30 -42 -9 -8 -16 -22 -16 -33 0 -10 -11 -36
-25 -56 -14 -20 -25 -43 -25 -50 0 -8 -8 -31 -18 -51 -26 -49 -52 -126 -64
-186 -5 -27 -14 -54 -19 -60 -5 -5 -9 -29 -9 -53 0 -24 -4 -51 -9 -60 -19 -35
-35 -258 -23 -318 8 -38 8 -62 2 -75 -8 -13 -5 -34 9 -76 11 -32 25 -90 31
-128 7 -39 16 -79 21 -90 11 -24 49 -147 49 -158 0 -4 -22 -7 -48 -6 -26 1
-57 -3 -69 -9 -12 -7 -40 -12 -62 -12 -22 0 -42 -4 -45 -9 -3 -5 -21 -12 -40
-15 -18 -4 -53 -20 -77 -36 -24 -16 -53 -30 -64 -30 -40 0 -197 -77 -247 -120
-28 -24 -93 -71 -144 -106 -57 -37 -118 -88 -155 -130 -33 -38 -70 -77 -82
-87 -45 -39 -149 -206 -172 -274 -8 -26 -21 -58 -27 -70 -12 -24 -10 -31 27
-132 9 -24 13 -56 10 -71 -3 -14 1 -41 9 -60 12 -30 12 -38 -1 -63 -17 -34
-21 -228 -6 -293 10 -42 89 -163 127 -196 29 -26 92 -58 112 -58 9 0 36 -18
61 -40 25 -22 56 -40 67 -40 12 0 31 -7 42 -15 10 -8 31 -15 45 -15 15 0 37
-8 50 -18 31 -24 128 -68 170 -77 18 -4 52 -18 77 -31 25 -13 56 -24 70 -24
25 0 163 -41 217 -65 53 -24 326 -62 459 -65 39 -1 73 -3 77 -6 16 -9 139 -12
224 -5 50 4 106 4 125 1 19 -3 73 0 120 7 86 14 120 18 241 27 36 2 85 10 110
16 24 7 59 12 77 12 19 -1 50 5 70 14 21 8 75 17 122 20 81 4 155 21 211 50
15 7 37 15 50 18 44 9 144 48 160 62 8 8 20 14 25 14 15 0 146 70 169 89 11
10 47 27 79 40 63 23 135 71 202 134 22 21 50 44 62 52 11 8 25 30 32 49 6 18
20 42 30 51 12 11 20 31 20 48 0 17 9 49 20 71 16 35 18 50 11 103 -5 34 -17
77 -26 97 -10 20 -15 42 -12 50 3 7 -1 26 -9 41 -8 15 -14 40 -14 55 0 15 -7
33 -15 40 -8 7 -15 21 -15 31 0 11 -4 27 -9 37 -4 9 -19 40 -32 67 -13 28 -41
68 -62 90 -115 122 -115 123 -107 159 10 46 13 49 75 90 30 21 71 57 91 81 21
24 59 58 86 75 27 18 56 44 66 58 17 28 66 93 92 123 57 66 102 128 125 172
11 20 28 40 38 43 16 5 34 32 72 112 l15 32 78 -2 c42 -1 86 1 97 5 17 7 24
-1 48 -53 15 -33 27 -66 27 -74 0 -37 165 -388 205 -436 7 -8 20 -30 29 -48 9
-18 28 -38 41 -44 13 -6 37 -29 52 -52 36 -53 219 -236 264 -263 19 -12 44
-36 57 -52 12 -17 31 -31 41 -31 10 0 24 -7 31 -15 6 -8 46 -35 88 -60 43 -25
97 -58 122 -73 25 -16 74 -39 110 -52 36 -13 76 -30 90 -37 14 -7 32 -13 41
-13 8 0 20 -5 27 -12 7 -7 44 -15 82 -19 38 -3 77 -12 86 -20 19 -15 99 -35
184 -45 30 -4 64 -12 75 -17 37 -20 306 -51 423 -48 39 1 72 -2 72 -6 -1 -4
-7 -19 -15 -33 -8 -14 -14 -35 -15 -46 0 -12 -6 -27 -14 -33 -20 -16 -39 -107
-50 -238 -2 -23 -7 -59 -10 -79 -6 -27 -3 -41 9 -54 13 -14 14 -25 7 -52 -11
-40 0 -74 25 -82 16 -5 18 -19 20 -107 1 -56 6 -106 12 -112 6 -6 11 -27 12
-47 0 -48 110 -190 157 -205 26 -7 32 -15 32 -36 0 -14 9 -37 21 -50 11 -13
28 -37 37 -52 9 -15 27 -30 39 -33 12 -3 29 -16 37 -28 17 -27 74 -56 110 -56
14 0 45 -9 68 -19 51 -22 200 -63 243 -66 17 -1 38 -5 48 -10 30 -13 165 3
256 30 46 13 88 22 92 19 11 -7 79 16 100 34 23 18 91 52 105 52 36 0 296 210
309 249 3 10 21 25 40 34 20 9 37 26 40 39 3 13 19 31 35 40 17 9 30 23 30 30
0 8 20 34 45 58 25 24 45 49 45 55 0 5 30 41 65 79 36 37 68 80 72 95 7 30 47
96 64 106 6 4 22 31 35 60 12 29 28 56 33 60 6 3 11 13 11 22 0 9 7 24 15 33
8 9 27 50 41 91 14 41 29 79 34 84 4 6 11 21 15 35 4 14 24 61 45 105 21 44
41 91 45 105 4 14 13 32 20 40 7 8 15 31 19 51 3 19 17 51 31 69 14 19 25 45
25 58 0 13 9 35 20 49 11 14 20 36 20 48 0 12 9 47 19 78 11 30 17 57 15 60
-2 2 2 17 11 33 8 16 15 48 15 72 0 23 4 50 9 60 23 46 42 125 46 192 2 41 9
89 15 106 8 22 8 39 0 58 -5 15 -10 47 -10 71 0 25 -7 64 -14 87 -8 24 -20 65
-26 92 -6 27 -24 65 -40 85 -17 19 -30 41 -30 48 0 7 -25 31 -55 53 -30 23
-66 58 -79 79 -13 21 -38 44 -55 51 -32 13 -39 24 -20 36 15 9 59 109 59 133
0 10 13 38 30 62 16 24 30 51 30 60 0 16 31 97 51 133 16 28 48 128 49 151 0
11 7 29 16 40 13 18 27 20 142 21 140 1 192 12 243 49 19 13 48 32 64 41 36
19 105 84 105 98 0 5 18 31 39 56 22 26 44 65 50 88 7 23 16 44 21 47 12 8 37
59 45 94 6 30 2 29 138 50 31 5 57 17 76 35 17 16 40 34 53 40 12 6 28 22 34
35 6 12 25 37 41 54 17 18 45 68 63 112 19 44 38 84 42 90 4 5 8 24 8 41 0 18
4 35 9 38 4 3 14 26 21 50 23 83 -25 253 -92 321 -16 16 -31 41 -35 55 -3 14
-10 31 -16 37 -10 14 9 73 24 73 14 0 62 81 77 130 17 56 16 155 -3 195 -7 17
-21 56 -30 88 -10 32 -27 69 -39 83 -64 77 -90 104 -100 104 -7 0 -25 13 -41
29 -15 17 -46 34 -69 40 -22 5 -61 17 -86 27 -32 12 -77 17 -157 18 l-112 1
-38 36 c-42 40 -178 116 -265 149 -77 29 -145 26 -293 -12 -111 -29 -175 -60
-278 -135 -39 -28 -82 -80 -118 -142 l-20 -34 -27 25 c-15 13 -38 30 -52 36
-34 16 -59 33 -86 60 -13 12 -29 22 -36 22 -7 1 -24 10 -37 21 -27 23 -20 34
29 45 14 3 39 11 55 19 17 7 55 19 85 26 30 6 64 18 75 25 11 8 30 14 42 14
13 0 37 14 55 30 17 17 39 30 50 30 26 0 150 128 169 175 24 60 39 109 39 131
0 11 9 37 20 59 11 22 20 48 20 60 0 11 9 44 20 73 11 29 20 74 20 102 0 27 5
52 10 55 6 3 10 17 10 31 0 13 8 50 19 81 18 57 26 87 51 188 13 53 28 124 34
165 12 77 19 85 77 91 73 8 100 20 147 69 32 33 41 52 47 93 8 62 9 110 0 157
-5 33 -4 36 37 56 25 12 49 33 57 50 8 16 25 51 38 77 25 48 25 56 7 144 -7
39 8 58 63 77 31 11 43 24 74 82 20 37 40 90 43 115 6 41 2 54 -23 96 -17 26
-46 75 -65 108 -46 79 -162 222 -185 230 -11 3 -27 18 -37 33 -26 39 -100 109
-124 117 -11 4 -37 22 -58 41 -20 19 -45 37 -54 40 -10 3 -18 9 -18 13 0 4
-21 21 -47 37 -27 16 -57 35 -68 41 -52 32 -269 133 -285 133 -7 0 -23 9 -37
20 -14 11 -35 20 -46 20 -11 0 -65 15 -121 34 -56 19 -126 36 -158 39 -31 3
-68 13 -82 22 -16 11 -35 15 -51 11 -13 -3 -66 -1 -117 5 -117 14 -191 19
-296 18 -79 -1 -84 1 -110 29 -22 23 -39 31 -86 36 -32 4 -77 14 -100 22 -60
21 -221 31 -241 14 -13 -11 -23 -11 -54 0 -30 10 -50 10 -87 1 -27 -6 -148
-14 -269 -17 -307 -9 -392 -12 -450 -19 -27 -4 -73 -7 -101 -8 -28 -1 -58 -8
-67 -15 -9 -8 -26 -12 -39 -10 -18 4 -8 12 52 42 41 20 82 41 90 47 8 5 26 14
40 19 14 6 40 21 58 34 18 14 51 27 73 31 22 4 51 17 64 28 14 12 41 33 61 47
20 14 49 36 65 50 15 14 51 41 78 60 28 19 50 39 51 43 0 5 21 27 46 50 26 23
53 56 60 74 8 17 30 44 49 59 19 14 35 32 35 38 0 7 16 35 35 62 19 27 35 53
35 58 0 4 11 21 25 38 13 16 30 48 36 71 6 23 26 65 45 93 19 28 34 57 34 65
0 8 7 24 15 37 9 12 18 35 20 52 2 16 11 40 19 52 9 12 16 31 16 42 0 10 11
29 25 42 19 18 25 33 25 65 0 23 6 50 13 58 31 36 52 237 56 529 1 51 20 56
51 12 21 -30 76 -60 110 -60 10 0 23 7 30 15 18 22 21 141 5 184 -7 20 -16 58
-20 86 -4 27 -16 67 -26 88 -11 21 -17 42 -14 47 3 5 -5 29 -19 52 -13 24 -30
63 -36 87 -7 26 -27 59 -50 83 -23 24 -42 57 -49 82 -7 28 -26 56 -61 91 -27
27 -50 56 -50 64 0 8 -7 23 -17 33 -9 10 -21 27 -27 37 -6 10 -20 31 -30 46
-16 22 -17 28 -5 36 8 5 23 7 34 3 33 -9 139 -14 151 -6 16 9 44 79 44 106 0
25 -38 66 -61 66 -9 0 -26 11 -38 24 -13 14 -36 30 -52 36 -15 7 -31 21 -34
31 -4 11 -21 25 -38 33 -18 7 -43 23 -56 35 -13 11 -32 21 -41 21 -9 0 -29 14
-45 30 -16 17 -34 30 -41 30 -19 0 -54 50 -54 76 0 15 -13 33 -35 50 -22 17
-35 35 -35 50 0 26 -35 95 -74 146 -14 19 -26 40 -26 46 0 18 -30 102 -57 159
-14 29 -23 59 -20 67 5 14 -5 49 -37 119 -9 20 -16 49 -15 65 2 55 -33 197
-55 221 -9 10 -13 26 -10 38 6 20 -6 72 -26 118 -45 103 -81 174 -89 180 -6 3
-11 17 -11 30 0 12 -13 37 -29 54 -16 17 -32 38 -35 47 -3 9 -16 29 -29 45
-12 16 -35 47 -52 68 -16 21 -39 51 -50 66 -11 16 -41 55 -67 88 -27 33 -48
64 -48 68 0 14 -201 209 -215 209 -7 0 -20 9 -30 20 -10 11 -22 20 -27 20 -6
0 -21 9 -35 20 -14 11 -37 20 -50 20 -15 0 -37 12 -53 30 -15 17 -37 30 -47
30 -10 0 -36 9 -58 20 -22 11 -47 20 -57 20 -10 0 -30 7 -43 16 -21 14 -41 19
-97 23 -37 3 58 61 100 61 33 0 154 41 181 62 15 12 41 18 73 18 27 0 61 6 76
14 15 7 45 16 67 19 21 4 52 16 67 27 15 11 43 20 64 20 20 0 50 6 67 14 44
18 97 32 197 49 103 18 171 35 185 46 11 9 73 25 175 45 36 7 75 18 87 24 12
7 31 12 43 12 11 0 37 8 58 19 20 10 43 16 51 13 12 -4 66 9 197 49 17 5 39 9
50 9 11 0 29 7 40 15 12 8 39 13 60 13 22 -1 60 8 87 21 26 12 68 24 94 26 60
6 121 23 128 35 3 6 22 10 42 10 19 0 60 7 91 16 31 9 92 25 136 34 86 19 143
39 209 70 23 11 47 20 54 20 8 0 26 9 42 21 15 11 44 25 64 30 21 5 53 13 73
18 19 5 43 16 53 25 10 9 24 16 33 16 8 0 37 16 64 35 27 19 56 35 65 35 9 0
22 7 29 15 7 8 24 15 38 15 14 0 53 18 88 40 35 22 66 40 70 40 12 0 104 63
104 72 0 5 19 18 43 28 23 11 65 38 92 60 28 22 65 44 84 50 19 5 43 18 55 29
29 27 84 67 127 90 19 11 41 27 48 35 8 9 21 16 31 16 9 0 37 15 61 34 24 18
53 36 65 40 11 3 30 20 42 36 13 17 32 30 42 30 11 0 28 9 37 20 10 11 22 20
29 20 6 0 33 21 60 46 27 26 81 68 120 95 39 26 112 88 163 138 50 50 96 91
101 91 5 0 20 19 34 43 30 51 77 106 172 201 39 39 74 81 78 93 4 12 22 33 41
48 20 14 44 44 55 66 11 21 30 45 41 52 11 6 40 44 65 83 24 39 53 79 64 89
10 9 22 31 26 49 3 17 14 40 24 51 10 11 23 45 29 75 6 30 18 69 26 85 45 94
74 168 69 176 -3 5 4 21 15 35 12 15 21 39 21 53 0 15 5 32 10 37 6 6 11 72
11 155 1 125 -2 150 -19 191 -23 52 -58 81 -100 80 -15 0 -34 6 -42 13 -25 21
-80 35 -135 35 -29 0 -59 6 -71 15 -10 8 -37 15 -59 15 -22 0 -52 6 -67 14
-14 8 -53 14 -86 14 -33 0 -69 5 -80 11 -11 6 -38 11 -59 11 -21 1 -67 7 -103
15 -36 8 -101 14 -145 15 -44 0 -129 7 -190 16 -106 14 -267 20 -405 14 -36
-1 -95 1 -131 5 -46 5 -74 3 -89 -5 -13 -7 -61 -13 -109 -15 -47 -1 -107 -8
-133 -15 -27 -7 -57 -10 -68 -7 -25 6 -153 -25 -198 -48 -19 -10 -45 -15 -60
-12 -15 3 -42 -1 -61 -9 -18 -8 -44 -14 -57 -14 -12 0 -38 -9 -56 -19 -18 -10
-62 -22 -98 -26 -67 -7 -194 -45 -213 -64 -6 -6 -27 -11 -47 -11 -20 0 -45 -7
-56 -15 -10 -8 -31 -15 -46 -15 -15 0 -47 -9 -70 -19 -109 -49 -137 -60 -174
-66 -21 -4 -61 -18 -87 -31 -27 -13 -56 -24 -65 -24 -9 0 -26 -7 -36 -15 -11
-8 -26 -15 -34 -15 -9 0 -29 -11 -46 -24 -17 -13 -46 -27 -65 -31 -18 -4 -41
-15 -52 -26 -10 -10 -44 -26 -76 -35 -32 -9 -67 -23 -78 -30 -11 -8 -29 -14
-42 -14 -12 0 -25 -5 -29 -11 -3 -6 -25 -19 -48 -28 -23 -10 -47 -26 -55 -35
-7 -9 -20 -16 -27 -16 -16 0 -11 54 11 125 25 81 52 216 47 238 -2 7 -3 245
-2 287 1 29 -13 115 -20 125 -4 6 -15 42 -25 82 -9 40 -23 77 -31 84 -8 6 -14
17 -14 24 0 6 -21 33 -47 58 -51 51 -56 52 -239 62 -59 3 -94 1 -101 -6z m258
-165 c37 -35 56 -91 63 -182 4 -41 11 -82 16 -92 6 -11 6 -30 0 -50 -5 -18 -7
-58 -3 -90 6 -63 -15 -329 -27 -345 -5 -6 -16 -41 -24 -79 -9 -37 -25 -81 -36
-97 -12 -15 -25 -41 -31 -56 -11 -33 -84 -84 -146 -102 -24 -6 -70 -34 -103
-61 -32 -28 -67 -50 -77 -50 -10 0 -38 -16 -62 -35 -24 -19 -47 -35 -50 -35
-4 0 -21 -13 -39 -30 -18 -16 -51 -35 -73 -42 -25 -7 -50 -24 -63 -41 -12 -17
-48 -42 -82 -58 -33 -15 -83 -45 -110 -65 -27 -21 -75 -51 -107 -66 -35 -17
-65 -40 -75 -57 -9 -16 -31 -34 -49 -40 -18 -7 -37 -21 -43 -31 -5 -10 -24
-23 -41 -29 -33 -11 -81 -46 -134 -98 -19 -18 -38 -33 -44 -33 -6 0 -28 -15
-48 -34 -21 -18 -48 -38 -60 -45 -13 -6 -23 -18 -23 -25 0 -8 -15 -23 -32 -35
-85 -54 -106 -71 -117 -99 -8 -19 -27 -37 -49 -48 -32 -15 -53 -32 -123 -103
-8 -8 -38 -37 -68 -65 -65 -61 -174 -165 -193 -185 -98 -101 -118 -124 -118
-137 0 -8 -16 -24 -35 -35 -19 -12 -35 -25 -35 -29 0 -5 -20 -30 -46 -57 -25
-26 -66 -79 -91 -116 -25 -38 -52 -71 -59 -74 -8 -3 -14 -12 -14 -19 0 -8 -17
-33 -38 -57 -56 -63 -102 -125 -102 -136 0 -6 -12 -24 -27 -40 -49 -54 -73
-89 -73 -108 0 -10 -6 -27 -14 -38 -36 -53 -96 -177 -96 -199 0 -14 10 -37 23
-52 19 -21 29 -26 50 -20 14 3 32 17 39 31 21 41 73 146 97 200 12 28 34 61
48 75 24 25 54 64 103 136 14 20 46 59 71 85 26 27 56 68 67 91 11 24 36 58
56 76 20 19 36 39 36 45 1 17 41 62 68 76 12 6 22 18 22 26 0 8 47 63 105 121
58 59 105 109 105 111 0 8 58 63 67 63 4 0 42 37 83 81 41 45 98 96 125 114
52 35 90 70 151 142 20 23 45 45 57 49 12 3 42 25 67 49 25 23 66 55 92 69 25
15 53 38 62 51 8 13 26 27 38 30 13 4 32 16 43 26 33 32 113 89 124 89 6 0 36
23 66 50 30 28 59 50 65 50 5 0 33 19 62 43 29 23 71 52 93 63 84 43 140 79
153 96 7 10 19 18 27 18 8 0 26 11 41 25 15 14 33 25 41 25 16 0 60 29 111 72
18 15 40 28 49 28 9 0 41 19 72 43 31 23 67 48 81 55 14 7 43 24 65 37 22 14
49 25 60 25 19 0 46 13 140 66 81 46 137 74 149 74 7 0 21 8 30 19 9 10 30 21
46 25 16 3 48 19 71 36 23 16 48 30 54 30 14 0 120 47 195 85 25 13 72 32 105
43 54 18 126 49 165 71 8 5 44 18 80 29 91 29 130 43 168 58 18 8 48 14 66 14
19 0 39 6 45 14 6 7 46 19 89 26 42 6 91 20 107 30 17 9 59 23 95 30 36 7 70
16 75 20 6 4 35 11 65 15 30 3 73 13 95 20 22 8 83 21 135 30 52 9 105 22 117
30 16 11 53 15 135 15 62 0 129 5 149 10 41 12 474 17 534 7 84 -15 222 -29
273 -28 33 1 61 -5 77 -15 17 -11 35 -14 57 -10 17 3 45 2 62 -3 48 -14 147
-33 191 -35 94 -5 190 -20 214 -32 14 -8 36 -14 49 -14 12 0 40 -9 62 -20 22
-11 45 -20 52 -20 7 0 27 -12 43 -27 29 -26 30 -28 30 -120 -1 -59 -5 -97 -13
-105 -7 -7 -12 -25 -12 -42 0 -16 -9 -39 -20 -51 -11 -11 -22 -37 -24 -56 -5
-36 -39 -132 -81 -224 -12 -27 -25 -61 -28 -76 -4 -14 -20 -45 -37 -70 -16
-24 -30 -48 -30 -53 0 -5 -16 -27 -35 -50 -82 -96 -125 -153 -125 -165 0 -9
-97 -111 -148 -156 -22 -19 -62 -73 -62 -83 0 -5 -16 -19 -35 -31 -19 -11 -35
-25 -35 -32 0 -28 -130 -172 -185 -205 -22 -13 -53 -42 -69 -64 -16 -21 -41
-43 -55 -48 -14 -5 -56 -37 -92 -71 -37 -33 -86 -69 -110 -80 -24 -10 -69 -39
-100 -65 -31 -25 -59 -46 -62 -46 -3 0 -48 -26 -99 -58 -51 -33 -110 -67 -130
-76 -20 -10 -44 -29 -53 -43 -9 -13 -31 -31 -48 -40 -69 -32 -104 -52 -116
-67 -8 -9 -19 -16 -27 -16 -7 0 -18 -9 -24 -20 -6 -11 -25 -27 -43 -35 -18 -9
-68 -36 -112 -60 -44 -25 -100 -54 -125 -65 -25 -12 -54 -26 -65 -32 -11 -6
-29 -16 -40 -21 -11 -6 -27 -14 -35 -18 -54 -30 -162 -79 -172 -79 -7 0 -35
-12 -63 -25 -27 -14 -53 -25 -57 -25 -4 0 -35 -13 -70 -29 -95 -43 -117 -51
-139 -51 -12 0 -33 -8 -47 -19 -25 -17 -93 -33 -264 -64 -36 -7 -70 -15 -74
-19 -4 -5 -19 -8 -33 -8 -14 0 -55 -9 -89 -20 -35 -11 -75 -20 -88 -20 -13 0
-43 -9 -67 -20 -23 -11 -72 -27 -107 -35 -36 -8 -98 -23 -139 -35 -41 -11 -84
-20 -96 -20 -11 0 -26 -5 -32 -11 -5 -5 -30 -10 -54 -11 -24 0 -59 -9 -79 -19
-19 -11 -42 -19 -52 -19 -9 0 -27 -4 -40 -9 -55 -22 -169 -51 -240 -61 -43 -6
-90 -18 -105 -25 -16 -8 -80 -26 -143 -40 -63 -14 -131 -29 -150 -34 -19 -4
-50 -15 -68 -25 -18 -9 -37 -14 -42 -11 -5 3 -27 -4 -49 -16 -22 -11 -59 -23
-81 -26 -22 -3 -43 -10 -46 -14 -3 -5 -20 -9 -39 -9 -19 0 -36 -4 -39 -9 -3
-4 -34 -14 -68 -21 -35 -7 -85 -23 -112 -36 -28 -13 -57 -24 -65 -24 -9 0 -25
-7 -35 -15 -11 -8 -30 -15 -43 -15 -26 0 -121 -32 -176 -61 -22 -10 -47 -19
-56 -19 -10 0 -37 -14 -59 -30 -52 -37 -55 -68 -12 -112 29 -29 32 -30 93 -23
34 4 72 11 85 16 13 5 33 4 48 -1 14 -6 39 -10 55 -10 34 0 263 -74 296 -96
12 -8 29 -14 37 -14 8 0 32 -11 52 -25 20 -14 47 -25 59 -25 12 0 39 -16 59
-35 21 -19 41 -35 44 -35 4 0 43 -34 87 -75 44 -41 83 -75 87 -75 4 0 19 -21
34 -47 32 -55 37 -62 97 -123 24 -25 48 -57 52 -70 4 -14 17 -36 29 -50 30
-33 66 -97 66 -116 0 -8 11 -26 25 -40 14 -14 28 -37 31 -52 15 -65 40 -130
65 -172 15 -25 29 -68 33 -99 4 -29 13 -63 21 -75 8 -11 19 -50 25 -86 7 -36
14 -78 17 -95 3 -16 12 -39 18 -50 7 -11 16 -48 19 -83 5 -42 15 -75 32 -99
13 -20 24 -45 24 -57 0 -12 9 -39 20 -61 11 -22 20 -47 20 -57 0 -10 20 -49
45 -88 25 -39 45 -79 45 -89 0 -11 22 -48 49 -83 27 -35 65 -82 83 -106 52
-68 101 -112 130 -119 36 -7 59 -33 30 -33 -30 0 -75 -58 -66 -84 4 -12 6 -42
5 -67 -1 -40 4 -53 34 -90 19 -24 48 -64 64 -89 35 -53 55 -79 97 -129 17 -20
41 -58 54 -86 13 -27 35 -66 50 -85 60 -80 110 -178 121 -236 6 -32 16 -65 21
-72 23 -27 -4 -23 -52 8 -48 31 -54 32 -90 21 -22 -7 -41 -19 -45 -30 -3 -11
-1 -57 4 -103 18 -150 13 -437 -8 -477 -6 -11 -11 -37 -11 -58 0 -22 -7 -48
-15 -59 -8 -10 -15 -28 -15 -38 0 -17 -10 -55 -28 -106 -3 -8 -11 -33 -18 -55
-25 -82 -65 -181 -92 -225 -15 -25 -36 -63 -46 -85 -11 -22 -27 -51 -36 -65
-10 -14 -26 -38 -36 -54 -87 -133 -122 -181 -158 -215 -20 -19 -36 -41 -36
-48 0 -7 -10 -17 -21 -24 -22 -11 -44 -31 -137 -117 -26 -24 -60 -51 -77 -59
-16 -9 -44 -27 -61 -39 -17 -13 -39 -24 -50 -24 -10 0 -32 -7 -49 -16 -71 -39
-126 -64 -140 -64 -9 0 -26 -11 -38 -23 -12 -13 -35 -27 -52 -31 -16 -4 -74
-30 -127 -57 -53 -27 -103 -49 -111 -49 -8 0 -20 -6 -26 -14 -6 -7 -33 -16
-59 -20 -26 -3 -57 -12 -67 -20 -11 -7 -54 -16 -95 -20 -41 -4 -85 -13 -97
-21 -14 -9 -33 -13 -47 -9 -16 4 -34 0 -48 -10 -12 -9 -36 -16 -53 -16 -17 0
-39 -6 -50 -14 -11 -7 -34 -17 -52 -20 -17 -4 -37 -13 -43 -21 -6 -8 -26 -17
-43 -20 -50 -10 -120 -37 -145 -56 -13 -10 -37 -21 -55 -24 -18 -4 -36 -11
-42 -15 -5 -4 -30 -14 -54 -24 -24 -9 -59 -29 -79 -44 -19 -15 -58 -36 -85
-47 -44 -18 -52 -26 -65 -64 -13 -39 -13 -47 2 -77 13 -28 21 -34 46 -34 16 0
30 -3 29 -7 -1 -15 -134 -176 -154 -187 -11 -6 -44 -30 -73 -53 -30 -24 -58
-43 -64 -43 -5 0 -29 -16 -53 -35 -24 -20 -59 -39 -79 -42 -19 -3 -43 -14 -52
-24 -9 -11 -24 -19 -31 -19 -8 0 -26 -9 -40 -20 -14 -11 -34 -20 -44 -20 -9 0
-31 -11 -47 -25 -32 -26 -101 -55 -133 -55 -11 0 -47 -13 -82 -29 -91 -43
-164 -68 -232 -81 -33 -7 -67 -18 -75 -25 -8 -7 -51 -21 -95 -31 -44 -9 -95
-26 -113 -37 -18 -11 -35 -17 -38 -14 -3 3 -33 -4 -67 -14 -34 -10 -77 -19
-96 -19 -18 0 -50 -9 -70 -20 -20 -11 -73 -23 -121 -29 -47 -5 -134 -21 -195
-35 -60 -14 -123 -25 -140 -26 -16 0 -43 -7 -59 -15 -15 -8 -54 -15 -86 -15
-32 0 -70 -6 -85 -14 -15 -8 -62 -17 -104 -21 -42 -4 -120 -13 -173 -21 -75
-12 -106 -13 -139 -4 -23 6 -52 9 -65 6 -35 -9 -83 19 -90 52 -18 88 -79 197
-116 211 -13 5 -43 26 -68 48 -64 56 -103 76 -202 107 -47 15 -89 33 -91 41
-3 7 -23 19 -44 25 -21 7 -57 26 -80 41 -23 16 -51 29 -62 29 -12 0 -31 11
-43 25 -12 14 -37 28 -57 31 -20 4 -40 10 -46 14 -5 4 -24 11 -42 14 -17 4
-34 13 -37 21 -3 8 -24 19 -48 25 -24 6 -63 19 -88 29 -70 29 -114 41 -147 41
-17 0 -36 7 -43 14 -16 20 -77 47 -180 80 -47 15 -92 34 -100 41 -8 7 -37 16
-64 20 -27 3 -65 14 -85 22 -20 9 -54 24 -76 34 -22 9 -60 25 -85 35 -25 10
-52 23 -60 30 -8 6 -30 14 -48 17 -18 4 -52 20 -75 35 -23 16 -63 38 -88 49
-26 12 -50 26 -53 32 -4 6 -31 27 -61 46 -30 18 -59 44 -66 57 -6 13 -20 32
-30 43 -72 79 -89 103 -77 112 13 10 131 50 230 78 62 17 76 36 53 71 -15 23
-29 29 -50 24 -5 -2 -23 -4 -40 -5 -16 -2 -51 -10 -78 -19 -97 -33 -142 -48
-157 -53 -12 -3 -22 13 -39 61 -13 37 -31 76 -41 89 -16 21 -32 62 -44 119 -6
26 -5 26 27 16 17 -6 78 -29 135 -52 112 -44 134 -43 140 6 3 21 -6 32 -45 58
-26 18 -70 39 -98 47 -27 8 -59 21 -70 29 -11 8 -25 14 -32 14 -6 0 -24 5 -38
10 -22 8 -25 13 -15 25 6 7 10 22 9 32 -4 25 8 68 37 131 13 29 24 55 24 58 0
3 11 20 25 38 14 18 25 40 25 49 0 8 13 25 29 37 17 11 32 28 35 38 5 14 44
38 136 82 8 4 21 23 29 43 12 32 11 41 -4 74 -10 21 -35 59 -56 85 -41 49 -59
86 -59 120 0 11 -11 33 -25 50 -16 19 -25 42 -25 64 0 32 2 35 23 29 12 -4 38
-18 58 -31 19 -13 40 -24 47 -24 7 0 12 -2 12 -4 0 -36 34 -164 50 -185 11
-16 20 -33 20 -38 0 -14 51 -59 90 -79 81 -41 226 -65 371 -61 97 3 100 3 94
-17 -4 -12 -11 -38 -16 -60 -5 -21 -14 -46 -19 -56 -6 -11 -5 -31 1 -55 7 -26
8 -45 1 -60 -7 -14 -7 -39 -1 -71 5 -27 12 -69 14 -94 9 -84 17 -115 37 -137
11 -12 18 -29 15 -37 -7 -17 47 -90 90 -123 87 -68 140 -104 158 -108 133 -27
252 -23 321 10 28 14 55 25 59 25 4 0 27 -19 51 -42 74 -74 140 -128 156 -128
9 0 21 -7 28 -15 6 -8 21 -17 32 -21 11 -3 46 -25 77 -48 57 -42 138 -86 160
-86 6 0 29 -9 51 -20 21 -11 45 -17 53 -14 12 4 46 10 86 13 7 0 53 40 101 87
65 63 90 95 94 119 4 18 20 52 36 76 16 24 30 51 30 60 0 9 6 22 14 29 8 6 16
24 18 38 3 23 17 34 98 74 52 26 100 48 106 48 6 0 23 11 38 25 15 14 34 25
43 25 8 0 45 30 81 66 36 36 76 73 89 82 14 8 29 26 34 39 10 28 38 30 70 4
29 -22 134 -34 292 -32 115 1 142 8 152 42 14 43 -9 49 -191 53 -156 3 -174 6
-231 30 -34 14 -72 26 -83 26 -12 0 -38 13 -58 29 -20 16 -55 35 -76 42 -21 8
-46 25 -55 39 -8 14 -24 31 -34 38 -10 8 -29 26 -42 40 -20 22 -28 25 -43 16
-27 -17 -27 -75 0 -102 79 -77 125 -116 152 -128 37 -16 66 -38 66 -49 0 -11
-132 -135 -144 -135 -5 0 -27 -15 -50 -33 -23 -19 -57 -37 -77 -41 -21 -3 -42
-13 -49 -21 -7 -8 -21 -15 -31 -15 -10 0 -20 -4 -24 -9 -3 -5 -19 -12 -35 -16
-17 -4 -45 -14 -63 -23 -45 -24 -262 -23 -327 1 -25 9 -58 17 -73 17 -16 0
-41 6 -55 14 -48 24 -102 46 -117 46 -7 0 -42 25 -78 55 -77 66 -109 72 -126
24 -6 -18 -11 -39 -11 -48 0 -17 -132 -161 -147 -161 -5 0 -24 -11 -43 -23
-43 -29 -68 -37 -145 -47 -94 -12 -160 11 -253 89 l-77 63 -32 97 c-17 53 -35
130 -38 172 -8 86 11 253 32 284 7 11 13 29 13 40 0 32 106 179 178 248 36 34
76 73 88 86 27 27 172 103 254 133 30 11 62 22 70 26 23 9 150 32 200 36 190
16 366 -11 425 -65 32 -28 72 -40 101 -29 21 8 25 15 22 42 -2 23 -10 36 -28
45 -235 116 -298 127 -530 94 -36 -5 -96 -14 -135 -19 -38 -5 -99 -21 -134
-35 -36 -14 -67 -24 -71 -22 -11 7 -77 138 -84 168 -9 40 -84 194 -119 247
-44 68 -155 166 -222 199 -80 39 -231 68 -276 52 -18 -6 -50 -11 -73 -11 -68
0 -183 -57 -241 -119 -49 -52 -114 -175 -115 -216 0 -11 -8 -62 -17 -113 l-18
-93 -35 6 c-20 4 -50 21 -70 41 -50 47 -77 44 -94 -12 -5 -17 2 -28 36 -53 80
-59 119 -81 143 -81 22 0 25 -5 25 -32 0 -59 -10 -61 -84 -22 -47 25 -74 34
-91 30 -21 -5 -25 -2 -31 21 -6 29 -19 64 -36 97 -18 35 -41 131 -40 164 1 18
-3 43 -10 55 -21 38 -42 252 -52 526 -4 101 -8 187 -10 190 -2 3 0 29 5 56 5
28 11 88 13 135 9 154 15 215 25 250 6 19 19 80 30 135 21 105 33 156 57 241
8 28 14 61 14 73 0 12 6 34 14 49 7 15 16 47 20 72 4 25 15 60 26 78 11 18 20
46 20 63 0 16 11 47 25 67 14 20 25 46 25 57 0 12 9 38 20 60 11 22 20 46 20
55 0 9 7 25 15 36 8 10 15 29 15 41 0 12 4 24 9 27 5 3 12 18 16 33 3 15 15
39 26 54 10 15 22 42 26 61 7 41 46 120 67 137 9 8 16 22 16 31 0 10 12 33 27
50 28 34 49 68 84 140 12 25 43 70 69 100 26 30 55 69 64 87 9 17 24 38 35 45
10 7 33 35 51 62 18 27 46 56 62 65 15 9 32 27 37 41 5 14 31 48 56 75 26 28
61 69 77 92 16 24 38 47 48 53 11 6 20 16 20 23 0 15 122 142 199 207 29 25
78 69 109 98 30 29 68 60 84 68 15 8 28 18 28 23 0 4 10 12 23 18 12 6 50 33
83 62 34 28 69 51 78 51 8 0 38 19 66 43 99 83 123 102 159 118 20 10 52 31
71 49 19 17 49 38 65 47 17 9 52 33 79 54 27 22 54 39 61 39 7 0 24 9 37 20
14 11 65 34 114 51 49 18 103 41 119 51 17 10 44 18 61 18 18 0 38 8 49 20 10
11 33 23 52 26 40 7 59 38 49 78 -12 50 -38 52 -151 14 -16 -5 -41 -12 -55
-15 -22 -4 -62 -20 -163 -69 -39 -19 -44 -18 -51 11 -6 23 18 114 42 161 5 10
22 46 37 79 16 33 36 71 45 85 10 14 21 41 25 60 4 19 23 53 42 75 18 22 36
51 40 65 3 14 16 41 28 60 50 76 80 124 90 139 62 100 127 189 180 251 36 41
69 85 75 97 5 13 35 49 67 82 136 140 206 218 219 244 8 15 19 27 24 27 8 0
62 51 280 266 25 24 50 44 56 44 6 0 22 16 35 34 13 19 42 45 64 57 22 12 54
35 70 51 17 16 59 52 95 79 36 28 72 59 80 69 8 10 38 30 66 44 29 14 54 33
58 41 3 8 11 15 17 15 6 0 29 16 50 35 22 19 45 35 52 35 8 0 22 9 32 20 10
11 23 20 30 20 7 0 20 9 30 20 10 11 27 22 38 26 11 3 40 21 64 40 25 19 49
34 55 34 6 0 30 18 54 40 24 22 52 40 62 40 10 0 31 14 45 30 15 17 36 30 46
30 11 0 32 10 48 23 15 12 62 38 103 57 41 19 106 52 145 73 94 50 433 217
443 217 4 0 18 9 32 20 14 11 39 20 56 20 18 0 50 13 75 30 24 16 54 30 67 30
13 0 42 11 65 24 23 13 76 34 117 47 41 12 87 30 102 40 14 11 37 19 50 19 13
0 55 9 93 21 39 11 88 25 110 30 22 6 44 14 50 20 5 5 15 9 23 9 8 0 28 6 45
14 18 8 43 17 57 20 90 20 151 36 195 51 28 10 68 19 90 21 82 7 201 25 220
34 26 11 85 20 165 26 36 2 79 8 95 12 17 5 95 8 173 7 142 -3 144 -3 173 -31z
m-6376 -7549 c40 -10 68 -24 84 -43 13 -14 33 -31 45 -37 23 -11 135 -153 135
-172 1 -6 12 -33 25 -60 13 -26 29 -66 36 -88 7 -22 17 -48 22 -58 5 -10 18
-35 28 -55 11 -21 22 -51 26 -69 5 -27 3 -32 -17 -38 -13 -4 -40 -20 -59 -35
-19 -15 -59 -43 -87 -64 -53 -36 -53 -36 -53 -12 0 14 -4 28 -10 31 -5 3 -10
14 -10 24 0 10 -11 28 -25 41 -20 19 -38 24 -91 27 -114 6 -128 30 -41 71 65
31 81 54 85 127 3 44 -1 81 -13 117 -23 69 -58 148 -66 148 -3 0 -20 21 -36
48 -17 26 -43 58 -57 71 -14 14 -26 28 -26 33 0 12 39 10 105 -7z m-365 -406
c14 -16 29 -29 33 -29 5 0 22 14 38 31 27 29 34 31 75 26 63 -7 84 -29 84 -87
0 -26 5 -61 11 -78 9 -25 7 -41 -7 -79 -10 -27 -21 -53 -26 -59 -5 -6 -15 -34
-23 -62 -9 -29 -25 -58 -38 -67 -33 -23 -87 -19 -120 9 -15 13 -43 34 -63 47
-39 27 -98 119 -113 176 -5 21 -12 63 -15 94 -7 68 10 96 64 109 47 11 70 3
100 -31z m7563 -1689 l47 -12 0 -46 c0 -25 -9 -72 -21 -104 -11 -33 -18 -66
-15 -75 4 -8 1 -22 -5 -29 -7 -8 -20 -63 -31 -122 -10 -59 -25 -141 -33 -182
-9 -41 -18 -93 -21 -115 -3 -22 -12 -58 -19 -80 -12 -37 -16 -122 -17 -375 -1
-125 20 -446 32 -490 5 -19 11 -47 14 -62 l6 -26 -133 -1 c-72 0 -159 -2 -192
-3 -33 -1 -76 -1 -95 1 -60 3 -171 -9 -193 -21 -12 -6 -63 -13 -115 -14 -51
-2 -101 -8 -112 -14 -10 -5 -29 -10 -42 -10 -13 0 -29 -5 -35 -11 -6 -6 -31
-13 -55 -15 -64 -5 -111 -15 -128 -28 -24 -20 -64 -34 -114 -41 -27 -4 -60
-18 -76 -31 -15 -13 -33 -24 -39 -24 -6 0 -37 -14 -68 -32 -32 -17 -75 -41
-96 -51 -21 -11 -41 -26 -44 -34 -3 -8 -25 -23 -49 -34 -40 -16 -44 -22 -44
-52 0 -42 33 -87 63 -87 12 0 41 18 65 39 36 33 83 57 102 51 10 -3 -3 -36
-26 -67 -13 -17 -24 -38 -24 -45 0 -7 -7 -22 -15 -32 -8 -11 -15 -30 -15 -43
0 -13 -11 -45 -24 -71 -13 -26 -26 -71 -30 -100 -4 -28 -15 -67 -25 -85 -34
-58 -44 -235 -18 -297 9 -19 13 -47 10 -62 -7 -35 33 -161 57 -183 11 -10 20
-24 20 -31 0 -26 61 -82 122 -112 35 -16 97 -38 138 -47 41 -9 85 -21 98 -26
13 -5 33 -9 45 -9 13 0 27 -4 33 -9 11 -10 178 -34 256 -36 32 -1 60 -4 64 -7
13 -14 -43 -93 -168 -234 -73 -83 -142 -165 -153 -183 -11 -17 -27 -33 -36
-36 -8 -3 -39 -30 -67 -60 -29 -30 -57 -55 -62 -55 -5 0 -15 -12 -22 -27 -7
-15 -24 -33 -37 -40 -14 -6 -39 -27 -56 -45 -59 -62 -133 -128 -144 -128 -9 0
-70 -48 -139 -110 -12 -11 -29 -20 -37 -20 -7 0 -23 -14 -35 -30 -15 -21 -36
-34 -66 -41 -25 -7 -55 -20 -67 -30 -42 -36 -103 -73 -209 -126 -59 -29 -110
-58 -113 -63 -3 -6 -14 -10 -24 -10 -10 0 -26 -9 -36 -20 -10 -11 -29 -20 -43
-20 -13 0 -36 -8 -50 -19 -15 -10 -38 -22 -52 -26 -14 -4 -34 -15 -45 -25 -11
-10 -33 -22 -50 -26 -16 -4 -43 -16 -60 -26 -16 -10 -41 -18 -55 -18 -14 0
-37 -8 -50 -17 -14 -10 -37 -16 -52 -14 -17 1 -34 -5 -48 -19 -15 -15 -38 -22
-88 -26 -37 -3 -74 -12 -83 -20 -8 -8 -31 -14 -51 -14 -19 0 -49 -7 -67 -16
-18 -9 -42 -14 -53 -11 -12 3 -34 -1 -50 -9 -36 -19 -109 -35 -173 -38 -55 -3
-150 -22 -168 -33 -7 -4 -56 -9 -110 -10 -54 -1 -104 -6 -110 -11 -19 -16
-173 -31 -306 -31 -30 0 -75 -4 -100 -10 -96 -21 -598 -62 -621 -51 -8 4 -49
3 -90 -2 -91 -12 -124 -12 -415 -5 -248 6 -374 15 -390 27 -5 4 -21 10 -35 14
-18 4 -34 23 -58 73 -18 38 -37 75 -42 83 -4 8 -22 45 -39 81 -17 37 -38 72
-46 79 -8 7 -15 22 -15 34 0 12 -9 38 -20 59 -11 20 -20 44 -20 52 0 9 -6 26
-14 38 -8 12 -27 72 -41 132 -15 61 -32 119 -39 130 -13 19 -22 56 -30 120 -2
17 -10 44 -17 60 -13 32 -24 101 -38 231 -5 45 -12 88 -16 94 -4 7 -10 103
-12 214 -5 266 -7 307 -16 333 -5 12 -4 31 2 41 6 11 12 84 15 163 2 79 7 155
10 169 6 26 26 238 32 349 2 35 8 69 13 75 5 6 12 37 15 68 9 75 -11 118 -54
118 -33 0 -50 -21 -68 -85 -6 -22 -17 -62 -26 -90 -12 -44 -18 -95 -32 -320
-1 -27 -8 -122 -14 -210 -11 -165 -15 -560 -6 -630 5 -37 3 -42 -30 -62 -25
-17 -51 -23 -89 -23 -30 0 -66 -5 -82 -11 -30 -12 -144 -13 -260 -3 -86 8
-116 28 -104 71 4 15 4 43 -1 60 -6 21 -5 40 2 53 6 12 9 40 5 63 -10 78 -18
232 -14 302 4 92 3 108 -5 185 -4 36 -9 139 -11 230 -2 91 -7 203 -10 250 -3
47 -7 123 -9 170 -2 47 -9 101 -15 120 -15 46 -14 102 2 123 9 13 36 17 127
21 63 2 135 10 160 16 25 6 80 17 123 24 43 7 83 18 90 25 6 6 22 11 37 11 27
1 107 45 238 133 32 21 69 45 83 54 33 21 69 73 69 100 0 11 7 27 16 34 9 7
32 47 52 87 20 41 47 81 59 89 31 20 80 12 131 -22 34 -23 47 -26 85 -20 33 5
51 3 70 -9 27 -18 114 -15 191 5 21 6 89 12 150 14 67 2 129 9 156 19 25 9 59
16 75 16 17 0 41 7 55 15 14 8 41 14 61 15 20 0 53 7 74 16 21 8 45 12 54 9
19 -7 131 11 181 30 19 8 49 14 67 14 17 0 41 4 52 10 11 6 38 11 60 11 22 0
69 11 104 24 35 13 90 29 123 36 32 6 86 22 119 34 94 36 128 47 160 55 17 4
53 18 80 30 28 12 68 26 90 31 97 21 156 38 178 53 13 8 43 20 66 27 23 6 64
24 92 40 27 17 56 30 63 30 23 0 85 29 128 60 23 17 46 30 52 30 14 0 94 53
121 79 11 11 32 26 47 34 62 32 278 236 278 263 0 9 9 23 19 32 10 10 27 38
36 64 17 46 17 48 -3 82 -19 33 -19 35 -3 50 10 9 28 16 40 16 13 0 35 8 49
19 15 10 41 21 57 25 17 4 48 15 70 26 22 10 62 26 90 36 27 10 65 26 84 36
20 10 44 18 56 18 11 0 40 10 65 21 25 11 91 29 148 40 95 17 105 17 128 3 26
-17 70 -16 184 6 30 6 75 13 100 15 25 2 115 15 200 30 166 27 407 49 453 40
16 -2 38 0 50 7 21 11 108 14 519 21 75 1 139 4 142 7 7 8 124 -5 179 -20z
m572 -93 c40 -2 97 -13 132 -26 34 -12 85 -24 113 -26 28 -3 59 -9 69 -15 27
-14 100 -37 142 -44 20 -4 71 -24 113 -46 42 -22 85 -40 95 -40 10 0 35 -11
55 -25 21 -14 52 -32 71 -39 18 -8 51 -30 73 -50 22 -20 49 -36 60 -36 11 0
39 -18 62 -40 23 -22 46 -40 51 -40 14 0 101 -87 114 -113 6 -12 20 -26 33
-32 12 -5 22 -13 22 -16 0 -4 22 -30 49 -59 27 -29 64 -81 81 -116 17 -35 40
-69 51 -74 24 -13 26 -83 5 -135 -12 -27 -22 -35 -52 -41 -34 -6 -40 -4 -66
27 -60 71 -83 92 -115 105 -18 8 -33 18 -33 23 0 11 -46 32 -90 41 -19 4 -42
11 -51 14 -28 12 -63 -27 -62 -68 2 -54 26 -76 80 -74 38 2 48 -2 78 -32 18
-19 38 -39 44 -45 81 -79 97 -103 110 -168 15 -76 6 -120 -34 -157 l-24 -22
-30 22 c-17 12 -31 25 -31 30 0 5 -13 16 -29 25 -17 8 -47 31 -68 51 -34 32
-42 35 -82 31 -48 -5 -71 -26 -71 -64 0 -28 31 -60 67 -69 25 -7 123 -96 123
-113 0 -4 14 -20 30 -34 26 -24 30 -34 30 -81 0 -29 -7 -69 -15 -89 -12 -30
-21 -36 -65 -47 -38 -9 -55 -9 -63 -1 -6 6 -23 11 -37 11 -14 0 -57 13 -95 30
-39 16 -84 30 -101 30 -17 0 -50 13 -75 29 -25 16 -65 31 -93 35 -27 3 -63 14
-80 25 -17 10 -69 26 -115 35 -46 9 -89 20 -95 23 -20 13 -198 32 -556 60 -36
3 -107 0 -158 -7 -51 -7 -96 -9 -100 -6 -10 11 -17 225 -15 512 1 198 5 265
18 317 9 37 18 82 20 99 2 18 11 58 20 88 9 30 20 78 25 105 6 28 14 68 19 90
6 22 17 72 25 110 8 39 17 78 20 88 3 9 8 24 11 32 4 15 84 15 390 2z m-8921
-1338 c105 -10 186 -27 186 -40 0 -10 60 -33 66 -26 4 3 29 -3 58 -13 28 -11
56 -20 63 -20 16 0 135 -81 151 -102 7 -10 19 -18 26 -18 7 0 26 -16 43 -35
17 -19 39 -35 48 -35 10 0 29 -12 44 -26 14 -14 60 -48 101 -75 41 -27 84 -55
95 -63 81 -56 179 -116 189 -116 7 0 30 -13 51 -30 21 -16 42 -30 47 -30 6 0
24 -6 41 -14 18 -8 50 -17 71 -20 22 -3 43 -9 48 -14 5 -5 11 -91 14 -193 2
-101 8 -200 11 -219 12 -67 14 -99 13 -213 -1 -38 4 -84 10 -102 8 -24 8 -45
1 -73 -8 -26 -8 -56 -1 -90 5 -28 9 -91 9 -139 0 -132 0 -131 4 -233 2 -52 7
-113 11 -136 l8 -40 -69 1 c-37 0 -73 3 -79 7 -5 4 -36 9 -68 12 -81 8 -174
26 -216 41 -53 20 -160 55 -202 66 -21 5 -71 22 -113 39 -42 16 -81 30 -87 30
-19 0 -101 42 -131 67 -16 13 -40 23 -55 23 -14 0 -35 8 -46 19 -24 21 -178
91 -218 98 -15 3 -33 11 -39 19 -6 8 -16 14 -22 14 -5 0 -25 11 -43 25 -18 14
-36 25 -39 25 -4 0 -18 9 -32 20 -14 11 -34 20 -43 20 -10 0 -40 20 -66 44
-27 24 -67 52 -89 64 -22 11 -65 46 -96 78 -31 33 -78 78 -105 102 -101 88
-145 135 -165 175 -12 22 -36 55 -54 74 -19 19 -37 47 -40 63 -3 15 -15 36
-27 46 -30 28 -44 60 -66 152 -21 85 -20 154 3 182 7 8 15 27 19 43 10 42 41
35 67 -15 37 -73 150 -196 208 -227 11 -6 40 -11 65 -11 37 0 48 4 62 25 22
34 14 49 -46 86 -27 17 -50 34 -50 37 0 4 -19 27 -42 52 -52 55 -88 106 -88
125 0 8 -4 16 -9 20 -17 10 -42 69 -46 110 -4 28 2 53 18 85 18 37 27 45 52
47 26 2 38 -7 85 -62 30 -36 64 -68 75 -71 11 -4 31 -15 44 -25 41 -33 101
-17 121 31 17 40 -1 67 -53 81 -44 11 -87 44 -87 65 0 7 -11 22 -25 33 -24 18
-25 24 -19 71 7 54 22 70 94 103 60 27 109 28 354 6z m8450 -237 c7 -12 -5
-52 -15 -52 -13 0 -22 27 -15 45 6 16 22 20 30 7z m441 -7 c54 -8 102 -12 106
-9 5 3 17 0 28 -6 11 -5 53 -14 93 -19 40 -5 87 -13 103 -19 17 -6 57 -16 90
-23 33 -6 94 -25 135 -41 41 -17 100 -40 130 -50 30 -11 59 -24 65 -29 5 -5
25 -9 45 -9 52 -1 84 -31 76 -73 -3 -17 -10 -57 -15 -87 -5 -31 -20 -83 -35
-117 -14 -33 -27 -81 -30 -106 -2 -25 -7 -50 -10 -56 -4 -6 -11 -34 -17 -63
-5 -29 -16 -87 -25 -128 -8 -41 -18 -93 -21 -115 -3 -22 -12 -49 -19 -60 -8
-11 -14 -29 -14 -40 0 -11 -6 -29 -13 -40 -7 -11 -21 -47 -31 -80 -31 -102
-29 -101 -123 -146 -77 -37 -100 -43 -188 -51 -55 -5 -147 -13 -205 -18 -126
-12 -108 -11 -305 -5 -530 16 -567 18 -649 33 -41 8 -64 8 -78 1 -14 -8 -34
-7 -69 1 -27 7 -64 10 -82 7 -18 -2 -76 1 -131 9 -54 7 -112 10 -130 7 -17 -2
-83 3 -146 12 -63 9 -162 21 -220 26 -74 7 -121 17 -159 34 -29 14 -67 25 -83
25 -16 0 -41 9 -55 20 -14 11 -31 20 -38 20 -30 0 -43 34 -39 100 10 146 16
179 40 215 8 11 14 29 14 40 0 12 4 25 9 30 4 6 20 48 36 95 15 47 31 92 36
100 5 8 16 31 25 50 9 19 27 58 40 87 13 28 24 58 24 65 0 25 30 56 77 80 27
12 53 23 59 23 6 0 33 10 60 21 91 39 119 47 175 48 31 1 63 7 70 13 15 11
156 29 199 26 14 -2 50 2 80 8 30 5 111 12 180 15 69 3 159 7 200 8 41 2 90
-1 107 -7 24 -8 49 -8 93 1 46 10 64 10 78 1 11 -7 31 -9 45 -5 36 9 107 117
107 163 l0 33 103 0 c57 0 148 -7 202 -15z m-1947 -1372 c30 -13 122 -30 192
-34 8 -1 40 -8 70 -17 30 -8 91 -18 135 -22 44 -5 105 -12 135 -18 30 -5 124
-10 209 -11 85 -1 159 -5 165 -9 6 -3 38 -7 71 -8 55 -2 124 -6 355 -20 47 -2
144 -7 215 -10 217 -8 230 -9 232 -19 2 -5 -14 -10 -35 -11 -32 -1 -145 -11
-307 -29 -58 -7 -129 -7 -345 -4 -85 1 -172 -2 -193 -6 -26 -5 -47 -3 -62 5
-17 9 -45 11 -90 7 -36 -4 -77 -2 -91 4 -14 5 -72 11 -128 14 -55 2 -126 9
-156 15 -30 6 -95 15 -145 21 -112 12 -242 70 -275 124 -11 18 -20 35 -20 39
0 11 30 6 68 -11z m3046 -257 c65 -11 99 -22 129 -43 53 -37 59 -41 80 -47 9
-3 17 -14 17 -25 0 -11 17 -33 38 -49 l37 -29 125 4 c110 3 132 1 185 -19 71
-26 123 -57 130 -78 3 -8 21 -32 40 -53 19 -21 35 -45 35 -53 0 -8 9 -31 20
-51 11 -21 20 -53 20 -71 0 -46 -28 -127 -51 -148 -10 -9 -19 -23 -19 -30 0
-7 -13 -29 -30 -47 -52 -60 -42 -109 50 -235 27 -37 52 -80 56 -97 4 -16 11
-35 16 -42 23 -30 27 -74 8 -106 -10 -18 -24 -59 -30 -91 -12 -57 -61 -161
-104 -219 -37 -51 -88 -71 -236 -96 -71 -11 -104 -32 -108 -65 -2 -16 1 -33 6
-38 6 -6 -1 -29 -19 -61 -15 -29 -41 -77 -58 -108 -73 -136 -117 -183 -202
-217 -48 -20 -70 -22 -153 -19 -53 3 -99 7 -102 10 -4 3 -1 27 5 54 27 121 34
162 37 213 9 180 18 368 16 390 -3 61 -22 189 -32 215 -6 15 -8 37 -4 48 7 22
-8 79 -37 145 -10 23 -19 54 -19 67 0 13 -9 44 -19 67 -34 74 -58 130 -92 213
-18 44 -37 87 -43 95 -6 8 -20 31 -30 50 -11 19 -27 43 -38 53 -10 10 -18 23
-18 30 0 7 -16 28 -35 47 -19 19 -35 40 -35 48 0 8 -18 31 -40 51 l-40 36 22
60 c33 93 76 139 177 186 47 22 104 42 126 44 22 2 54 8 70 13 41 14 48 14
149 -2z m-433 -3047 c49 -38 56 -52 68 -125 13 -83 -4 -325 -28 -389 -10 -27
-24 -81 -30 -120 -15 -89 -51 -227 -62 -240 -5 -5 -9 -15 -9 -23 0 -19 -46
-117 -75 -160 -14 -20 -25 -45 -25 -55 0 -17 -75 -97 -90 -97 -3 0 -41 34 -85
75 -59 57 -93 80 -137 96 -32 12 -68 30 -80 40 -11 11 -31 19 -44 19 -13 0
-26 5 -29 10 -3 6 -18 10 -33 10 -45 0 -102 20 -102 35 0 8 5 15 11 15 14 0
98 84 123 122 10 15 26 30 37 33 11 4 28 24 39 45 11 21 28 41 39 45 10 3 24
18 31 34 6 16 29 47 51 69 21 23 39 49 39 57 0 9 22 42 48 73 27 31 59 75 72
97 13 22 33 51 45 65 12 14 30 45 40 70 11 25 32 61 47 80 15 19 28 44 28 55
0 18 54 95 67 95 3 0 23 -14 44 -31z m-7546 -364 c23 -14 46 -36 49 -48 11
-40 6 -103 -9 -123 -22 -29 -19 -34 21 -32 32 1 43 -6 89 -53 56 -57 107 -99
123 -99 5 0 17 9 27 20 22 24 70 27 79 4 10 -26 7 -32 -26 -64 l-33 -30 18
-31 c22 -40 22 -73 -2 -90 -10 -8 -21 -27 -24 -44 -5 -28 -1 -32 46 -55 66
-32 81 -70 48 -124 -36 -58 -83 -60 -145 -6 -31 28 -34 29 -39 10 -4 -14 4
-25 30 -40 19 -11 40 -20 47 -20 8 0 19 -7 26 -15 12 -14 16 -13 36 6 13 12
32 27 42 33 11 6 32 20 47 30 20 15 31 17 44 9 40 -25 20 -79 -45 -120 l-43
-27 47 -23 c26 -13 52 -23 59 -23 16 0 53 -49 53 -70 0 -28 -28 -46 -48 -32
-20 14 -63 35 -77 36 -5 1 -29 7 -53 14 -23 7 -46 11 -51 8 -18 -11 -61 35
-61 65 0 16 -5 29 -12 29 -26 0 -98 46 -104 65 -4 11 -13 28 -21 37 -23 25 -9
77 32 125 20 24 33 47 29 56 -3 8 2 21 11 28 53 45 62 60 51 85 -11 23 -26 33
-26 16 0 -4 -34 -32 -75 -61 -41 -30 -75 -58 -75 -62 0 -28 -85 -14 -97 16 -6
16 41 75 60 75 4 0 32 19 61 43 30 23 62 47 72 54 18 11 18 12 -2 33 l-21 22
-24 -34 c-30 -42 -30 -43 -96 -58 -67 -15 -96 -3 -113 43 -19 56 -13 104 17
132 33 30 17 34 -20 5 -30 -24 -89 -26 -111 -5 -8 8 -19 15 -25 15 -15 0 -41
54 -41 85 0 36 14 59 66 110 43 43 122 103 137 104 5 1 28 -10 52 -24z m-702
-332 c18 -21 47 -52 65 -70 17 -17 32 -37 32 -44 0 -7 7 -21 17 -31 19 -21 36
-50 59 -98 9 -19 27 -49 40 -66 13 -18 28 -50 33 -73 5 -22 18 -57 30 -76 12
-20 21 -48 21 -64 0 -15 5 -32 11 -38 5 -5 13 -36 16 -67 3 -31 10 -59 14 -62
5 -3 9 -29 9 -58 0 -28 5 -57 11 -63 14 -14 16 -120 2 -134 -32 -32 -251 -36
-298 -5 -13 9 -33 16 -45 16 -34 0 -114 51 -143 92 -45 64 -32 132 40 210 47
51 52 71 26 100 -19 22 -42 23 -80 4 -15 -8 -40 -19 -55 -25 -16 -6 -33 -25
-43 -48 -43 -97 -49 -102 -59 -51 -3 17 -13 39 -22 49 -12 13 -16 47 -17 160
-2 143 -2 144 26 183 15 22 36 46 47 53 11 8 20 21 20 29 0 15 189 214 203
214 5 0 23 -17 40 -37z m2928 -305 c64 -67 114 -160 143 -263 10 -33 21 -74
27 -91 5 -17 9 -50 9 -73 0 -39 -5 -48 -57 -98 -93 -89 -109 -100 -170 -118
-32 -9 -73 -24 -91 -32 -21 -11 -58 -16 -105 -16 -39 0 -128 1 -197 1 -368 -1
-419 3 -491 35 -36 16 -37 17 -47 99 -13 98 -79 357 -97 378 -7 8 -20 36 -30
62 -10 26 -24 53 -31 59 -8 6 -14 15 -14 20 0 11 159 3 194 -10 16 -6 49 -11
75 -10 25 1 96 1 156 0 181 -1 215 2 420 44 44 9 99 20 121 24 23 4 54 17 69
29 15 12 34 22 42 22 7 0 41 -28 74 -62z m4190 -258 c3 -14 2 -32 -2 -41 -7
-13 -3 -18 16 -23 17 -4 25 -13 25 -29 0 -34 -12 -45 -49 -49 -32 -3 -35 -6
-47 -53 -13 -55 -14 -53 18 -70 25 -12 29 -55 7 -81 -17 -21 -68 -8 -97 24
-21 22 -23 32 -19 86 3 33 8 73 12 89 7 25 5 27 -25 27 -25 0 -30 -3 -26 -17
18 -58 14 -91 -17 -144 -40 -66 -101 -102 -157 -91 -46 9 -80 72 -80 148 0 58
8 69 63 77 34 5 38 4 31 -11 -10 -21 -7 -113 4 -124 4 -4 17 -5 29 -2 16 5 26
20 37 56 16 57 13 74 -17 84 -20 6 -20 7 -2 20 10 8 25 14 33 14 9 0 31 12 50
26 19 15 53 32 76 39 25 7 46 21 53 35 23 47 73 53 84 10z m231 -98 c28 -27
34 -86 14 -118 -22 -32 -74 -56 -98 -43 -28 15 -48 10 -48 -11 0 -29 26 -38
72 -26 35 9 42 8 54 -9 8 -10 14 -22 14 -26 0 -20 -40 -51 -76 -59 -34 -8 -49
-6 -83 10 -22 11 -47 31 -56 43 -18 28 -15 94 8 162 14 42 25 55 65 78 53 31
103 31 134 -1z m144 -51 c10 -18 9 -31 -2 -57 l-14 -34 29 0 c16 0 34 -7 41
-15 16 -19 4 -52 -23 -61 -12 -4 -37 -20 -55 -36 -25 -22 -42 -28 -65 -26 -29
3 -32 7 -37 43 -3 28 2 57 17 95 13 30 23 64 23 76 0 48 64 59 86 15z m278 13
c9 -3 16 -14 16 -25 0 -20 -57 -109 -69 -109 -9 0 -68 -90 -87 -131 -28 -62
-92 -90 -114 -49 -12 22 -5 60 10 60 5 0 23 27 41 60 18 34 54 83 81 111 26
27 48 54 48 58 0 5 12 14 28 19 15 6 28 11 29 11 1 1 8 -2 17 -5z m-6269 -44
c19 -7 26 -16 23 -31 -4 -28 -15 -33 -113 -53 -136 -28 -156 -33 -168 -45 -6
-6 -25 -11 -41 -11 -17 0 -40 -7 -50 -15 -27 -20 -59 -19 -87 3 -28 23 -20 48
18 62 16 6 37 14 48 19 48 21 112 41 132 41 12 0 25 5 28 10 3 6 19 10 35 10
16 0 32 5 35 10 8 13 106 13 140 0z m5160 -19 c-3 -12 -11 -21 -16 -21 -5 0
-9 -8 -9 -17 0 -42 -118 -121 -160 -108 -10 3 -29 8 -41 10 -30 6 -39 16 -48
56 -11 54 -5 64 39 64 33 0 40 -3 45 -24 5 -18 9 -21 18 -12 6 6 19 11 29 11
9 0 22 9 28 20 7 14 21 20 43 20 18 0 42 6 53 14 23 17 28 14 19 -13z m-355
-29 c0 -5 -7 -17 -15 -28 -8 -10 -15 -33 -15 -50 0 -41 -43 -83 -68 -68 -13 9
-17 24 -15 69 1 31 8 63 14 71 12 15 99 20 99 6z m1577 -24 c21 -23 28 -57 39
-174 5 -58 4 -62 -22 -79 -16 -10 -44 -19 -64 -21 -19 -1 -49 -5 -67 -9 -42
-8 -89 30 -79 63 6 17 15 22 39 22 18 0 49 5 70 11 l39 10 -7 52 c-4 29 -11
59 -15 67 -4 8 -3 30 2 48 10 38 35 42 65 10z m-6362 -118 c7 -11 -39 -94 -67
-122 -10 -10 -18 -24 -18 -32 0 -18 -90 -143 -108 -150 -17 -7 -64 18 -135 74
-59 46 -78 81 -60 109 17 27 42 24 86 -12 73 -59 85 -63 110 -31 28 35 43 61
58 97 6 15 14 27 18 27 4 0 13 11 19 25 19 42 75 51 97 15z m5475 -326 c41 -8
90 -20 108 -25 19 -6 36 -8 39 -5 3 3 18 -1 32 -8 14 -8 58 -26 96 -41 39 -16
79 -36 89 -46 19 -17 19 -19 3 -37 -9 -10 -17 -23 -17 -29 0 -14 -103 -140
-145 -178 -18 -16 -41 -45 -50 -63 -9 -18 -26 -37 -38 -41 -12 -5 -31 -18 -41
-30 -11 -11 -24 -21 -30 -21 -6 0 -31 -14 -56 -31 -45 -30 -46 -30 -151 -25
-64 3 -118 10 -136 19 -15 8 -44 17 -63 21 -19 4 -53 22 -75 41 l-40 34 0 97
0 97 -37 30 c-66 53 -113 13 -133 -113 -4 -25 -18 -57 -31 -72 -12 -16 -25
-37 -29 -48 -10 -30 -93 -17 -120 19 -11 14 -29 35 -40 46 -12 11 -25 47 -33
85 -7 36 -15 77 -19 92 -3 16 -2 44 1 63 6 30 11 35 34 35 15 0 36 6 47 14 11
7 34 16 50 20 17 4 53 18 80 30 44 21 81 31 185 50 14 3 45 10 69 16 122 30
310 32 451 4z"/>
<path d="M15445 18610 c-22 -5 -110 -12 -195 -15 -85 -4 -184 -11 -220 -16
-36 -5 -82 -9 -102 -9 -21 1 -48 -6 -60 -13 -13 -8 -48 -17 -78 -21 -30 -3
-80 -15 -110 -27 -30 -12 -82 -27 -115 -34 -80 -18 -113 -28 -162 -54 -23 -11
-51 -21 -61 -21 -11 0 -30 -8 -43 -18 -13 -11 -46 -27 -74 -37 -69 -25 -134
-55 -141 -66 -3 -5 -15 -9 -28 -9 -12 0 -32 -11 -44 -25 -12 -14 -30 -25 -41
-25 -10 0 -30 -9 -44 -20 -14 -11 -34 -20 -45 -20 -12 0 -24 -5 -27 -10 -4 -6
-21 -17 -38 -25 -18 -9 -57 -33 -87 -55 -30 -21 -58 -39 -62 -39 -4 -1 -27
-15 -52 -31 -25 -17 -58 -35 -75 -41 -16 -6 -37 -21 -45 -34 -9 -14 -41 -37
-72 -52 -31 -15 -77 -47 -102 -70 -25 -24 -51 -43 -57 -43 -7 0 -27 -14 -46
-31 -71 -63 -142 -121 -182 -147 -23 -15 -64 -44 -90 -64 -27 -21 -54 -38 -60
-38 -5 0 -17 -6 -26 -14 -9 -8 -33 -30 -54 -48 -21 -18 -52 -45 -68 -60 -16
-16 -41 -35 -54 -44 -13 -9 -27 -24 -30 -35 -4 -10 -13 -19 -20 -19 -8 0 -36
-22 -62 -49 -26 -26 -62 -55 -79 -64 -17 -9 -52 -39 -77 -67 -26 -28 -63 -63
-84 -77 -21 -13 -51 -38 -68 -54 -106 -103 -190 -177 -226 -199 -23 -14 -62
-45 -88 -71 -25 -25 -61 -54 -78 -64 -18 -11 -33 -23 -33 -27 0 -4 -19 -16
-42 -27 -24 -11 -74 -49 -111 -84 -37 -36 -82 -71 -100 -78 -18 -7 -50 -28
-71 -46 -22 -18 -45 -33 -51 -33 -6 0 -28 -18 -49 -39 -21 -22 -49 -42 -62
-45 -12 -3 -32 -19 -43 -35 -11 -15 -35 -34 -53 -42 -29 -11 -80 -43 -202
-125 -18 -12 -47 -39 -65 -59 -32 -37 -56 -52 -169 -111 -29 -14 -67 -40 -84
-56 -18 -16 -49 -37 -70 -45 -21 -8 -38 -19 -38 -24 0 -5 -15 -16 -32 -24 -54
-25 -172 -89 -198 -107 -13 -10 -32 -18 -41 -18 -24 0 -46 -30 -52 -74 -12
-76 23 -94 104 -54 24 12 67 23 95 24 28 2 75 12 105 22 30 11 99 25 154 32
55 7 105 15 110 18 29 19 116 41 158 42 26 0 64 7 84 15 19 8 45 15 57 15 12
0 31 6 42 14 11 8 38 18 60 22 21 4 59 16 84 26 67 29 119 46 180 59 30 6 65
17 77 25 12 8 36 14 53 14 17 0 45 8 63 17 18 9 50 20 72 24 22 4 58 13 80 19
22 6 56 15 75 19 19 5 58 17 85 28 28 11 79 26 115 33 36 7 99 23 140 36 41
13 85 24 97 24 12 0 42 8 65 19 24 10 72 28 108 39 156 50 321 112 361 135 50
29 207 87 237 87 10 0 27 9 37 20 10 11 44 28 74 37 31 8 76 26 101 39 25 13
52 24 60 24 9 0 32 11 50 25 19 14 53 30 75 36 22 6 49 15 60 19 41 17 91 38
135 56 25 10 52 24 61 31 8 7 20 13 26 13 6 0 16 6 22 14 6 7 32 16 57 19 28
3 53 13 65 26 11 11 24 21 29 21 19 0 156 70 240 123 47 30 98 57 113 61 15 3
37 17 49 29 12 12 34 29 49 37 62 34 184 124 277 204 29 25 58 46 64 46 6 0
41 26 77 58 36 33 76 64 88 70 12 7 24 21 28 31 3 11 15 23 26 26 10 4 41 27
68 53 27 26 65 61 84 77 20 17 75 70 124 119 48 49 123 124 165 167 70 69 97
99 173 194 14 17 45 54 70 84 25 30 45 58 45 62 0 4 14 22 31 40 16 18 33 45
36 60 3 16 11 33 19 40 7 6 20 34 30 62 9 29 25 61 35 73 11 11 19 25 19 31 0
6 8 25 18 42 13 23 14 35 6 48 -16 27 -62 46 -127 54 -32 4 -66 14 -75 22 -12
11 -47 17 -117 21 -55 2 -111 7 -125 10 -14 2 -43 0 -65 -4z"/>
<path d="M8257 13433 c-4 -3 -37 -8 -73 -10 -76 -4 -114 -21 -218 -100 -52
-39 -74 -65 -92 -103 -38 -82 -40 -114 -10 -144 31 -31 40 -32 67 -5 15 15 19
29 16 47 -9 47 49 137 94 147 16 4 31 11 34 15 14 22 105 51 176 57 78 6 235
-12 245 -28 7 -12 51 -11 75 1 11 6 19 21 19 36 0 32 -33 46 -175 73 -116 22
-147 25 -158 14z"/>
<path d="M5648 12990 c-40 -5 -79 -16 -95 -28 -16 -11 -48 -29 -73 -40 -25
-12 -56 -33 -69 -47 -13 -14 -27 -25 -32 -25 -5 0 -18 -18 -29 -40 -16 -31
-18 -45 -10 -60 20 -38 90 -34 90 5 0 21 40 65 60 65 10 0 32 11 48 25 17 14
39 25 49 25 11 0 28 6 39 14 11 8 30 12 45 9 15 -3 30 0 33 6 7 11 56 5 66 -9
3 -3 28 -17 55 -29 28 -13 63 -34 78 -47 34 -28 40 -29 61 -8 32 32 20 60 -51
113 -90 68 -151 84 -265 71z"/>
<path d="M8290 12346 c-127 -31 -156 -45 -218 -110 -29 -31 -57 -56 -62 -56
-5 0 -17 -15 -26 -32 -9 -18 -31 -49 -49 -68 -30 -32 -59 -95 -89 -195 -7 -22
-16 -47 -20 -56 -4 -10 -6 -23 -5 -30 1 -8 -3 -27 -10 -44 -14 -32 -17 -311
-5 -362 21 -83 100 -193 140 -193 8 0 27 -8 41 -17 23 -15 50 -18 163 -18 137
0 145 2 320 57 19 6 48 13 65 15 16 2 34 8 39 13 6 6 22 10 36 10 15 0 30 3
34 7 9 9 78 33 97 33 8 0 39 11 68 25 29 14 67 28 84 31 39 7 176 63 198 81 8
7 20 13 25 13 15 0 90 82 108 118 32 62 9 207 -41 264 -18 20 -9 38 17 38 10
0 21 4 25 9 3 5 19 12 36 16 18 4 54 31 91 68 62 64 82 96 72 122 -14 36 -87
24 -103 -17 -5 -13 -17 -30 -27 -39 -34 -28 -166 -91 -173 -82 -48 70 -81 121
-81 127 0 3 7 6 15 6 27 0 99 51 152 109 57 60 61 72 38 91 -25 21 -78 3 -121
-41 -43 -45 -101 -79 -135 -79 -11 0 -44 20 -71 45 -28 25 -56 45 -63 45 -6 0
-20 9 -31 21 -28 31 -58 44 -159 69 -130 33 -256 34 -375 6z m355 -107 c5 -5
26 -9 46 -9 20 0 42 -7 49 -15 7 -8 18 -15 25 -15 6 0 20 -9 30 -20 10 -11 23
-20 29 -21 29 -1 193 -215 238 -309 12 -25 32 -54 44 -66 31 -30 49 -122 34
-170 -12 -35 -78 -94 -106 -94 -7 0 -19 -6 -27 -14 -8 -8 -30 -21 -49 -29
l-36 -15 -6 36 c-3 21 -6 50 -6 66 0 16 -14 53 -31 83 -37 65 -79 88 -140 78
-22 -4 -39 -4 -39 -1 0 3 18 33 40 67 38 59 40 65 33 118 -3 31 -12 65 -18 76
-7 11 -15 31 -18 45 -6 23 -31 59 -114 159 -15 19 -41 43 -58 53 l-30 20 50
-7 c28 -4 54 -11 60 -16z m-237 -333 c56 -28 76 -49 91 -96 18 -56 12 -160
-10 -189 -11 -13 -19 -34 -19 -46 0 -12 -9 -30 -20 -40 -11 -10 -20 -26 -20
-37 0 -10 -27 -46 -61 -81 l-61 -62 -81 2 c-89 3 -133 16 -142 43 -3 10 -28
38 -55 63 -28 26 -50 51 -50 57 0 6 -9 23 -20 38 -51 69 -72 199 -39 238 55
67 162 49 249 -42 l35 -36 3 25 c2 14 12 33 23 43 10 9 19 26 19 36 0 27 35
69 73 90 18 9 33 17 35 18 1 0 24 -11 50 -24z"/>
<path d="M10295 11735 c-55 -8 -110 -18 -121 -24 -12 -5 -43 -13 -70 -16 -65
-10 -154 -32 -168 -43 -6 -5 -28 -12 -49 -16 -20 -4 -59 -18 -85 -31 -27 -13
-67 -27 -91 -31 -23 -4 -61 -20 -84 -35 -23 -16 -52 -29 -63 -29 -12 0 -27 -7
-34 -15 -7 -8 -21 -15 -31 -15 -10 0 -20 -4 -24 -9 -3 -6 -43 -29 -88 -52 -45
-23 -101 -54 -125 -70 -24 -16 -46 -29 -51 -29 -4 0 -20 -14 -37 -31 -16 -17
-36 -34 -46 -38 -26 -10 -137 -120 -154 -153 -9 -17 -13 -41 -10 -54 12 -48
80 -56 92 -10 10 41 173 183 254 222 27 13 50 29 50 34 0 6 4 10 9 10 5 0 47
23 92 50 45 28 87 50 93 50 13 0 109 39 153 63 18 9 38 17 45 17 7 0 27 7 43
16 17 9 53 23 80 31 28 8 57 17 65 20 58 23 116 41 122 37 4 -2 35 5 70 16 35
11 77 25 94 30 17 6 55 10 84 10 49 0 86 8 148 31 52 20 34 66 -29 74 -19 2
-79 -2 -134 -10z"/>
<path d="M10313 11212 c-32 -7 -67 -11 -77 -8 -11 3 -27 1 -36 -4 -9 -5 -43
-11 -76 -14 -112 -11 -250 -34 -270 -44 -31 -18 -138 -52 -162 -52 -11 0 -24
-4 -27 -10 -3 -5 -13 -10 -21 -10 -8 0 -51 -18 -97 -40 -84 -41 -102 -51 -149
-82 -15 -10 -34 -18 -42 -18 -28 0 -153 -122 -162 -158 -15 -56 49 -70 91 -19
15 17 40 39 54 47 41 23 89 52 135 82 22 15 48 28 57 28 9 0 27 8 40 18 32 24
75 42 100 42 11 0 32 8 47 19 15 10 68 29 117 41 50 12 97 25 105 28 8 3 26 7
40 8 97 11 238 32 255 37 35 11 376 38 388 30 6 -3 48 -8 93 -9 69 -3 87 0
106 16 34 28 14 51 -63 72 -77 21 -353 21 -446 0z"/>
<path d="M6640 11008 c-36 -11 -84 -35 -107 -54 -23 -19 -45 -34 -50 -34 -4 0
-29 -21 -54 -48 -43 -45 -46 -51 -52 -120 -7 -65 -5 -77 19 -121 14 -27 35
-56 47 -64 12 -8 40 -31 61 -51 22 -20 50 -36 62 -36 13 0 26 -5 29 -10 20
-32 132 -65 256 -75 83 -7 85 -7 131 24 25 17 50 31 55 31 11 0 70 62 107 112
60 81 82 277 37 334 -12 15 -21 32 -21 39 0 19 -36 39 -120 67 -102 35 -300
38 -400 6z"/>
<path d="M10702 7498 c-32 -32 1 -118 51 -134 12 -4 36 -17 53 -30 17 -13 38
-24 46 -24 8 0 23 -9 33 -20 10 -11 24 -20 31 -20 7 0 19 -6 26 -13 16 -15
107 -67 119 -67 4 0 28 -14 53 -30 49 -33 50 -41 12 -92 -11 -16 -25 -28 -32
-28 -7 0 -21 -11 -32 -25 -11 -14 -26 -25 -33 -25 -7 0 -31 -19 -53 -43 -23
-23 -67 -62 -98 -86 -32 -23 -60 -52 -63 -62 -8 -26 19 -67 48 -74 32 -8 93
20 119 55 12 17 28 30 37 30 8 0 42 26 76 58 34 31 80 70 103 85 23 16 49 41
57 57 8 16 26 41 40 56 37 39 32 74 -16 131 -23 26 -54 53 -69 60 -16 7 -31
17 -35 23 -3 5 -14 10 -24 10 -9 0 -45 20 -78 45 -34 24 -74 47 -90 51 -15 4
-38 16 -49 28 -31 30 -165 96 -194 96 -15 0 -31 -5 -38 -12z"/>
<path d="M10473 7468 c-19 -24 -36 -93 -39 -158 -1 -36 -5 -72 -9 -81 -3 -8
-4 -28 -3 -45 4 -38 -11 -178 -23 -227 -6 -21 -12 -70 -15 -109 -5 -72 -17
-141 -28 -169 -9 -21 35 -83 62 -87 39 -6 67 35 80 118 7 41 17 95 22 120 5
25 10 63 9 85 0 22 5 65 11 95 11 51 18 114 36 316 6 79 6 83 -21 118 -28 37
-64 47 -82 24z"/>
<path d="M9276 7081 c-22 -24 -38 -80 -30 -106 4 -11 15 -31 25 -44 11 -13 19
-40 19 -61 0 -22 8 -48 20 -63 38 -47 24 -57 -45 -32 -22 8 -53 14 -69 15 -39
0 -93 -43 -117 -94 -11 -22 -27 -54 -36 -71 -20 -37 -30 -140 -14 -149 6 -4
11 -22 11 -41 0 -29 12 -46 85 -118 103 -103 133 -114 261 -93 90 15 127 34
167 85 27 33 28 41 23 96 -7 64 -31 140 -53 166 -7 8 -13 27 -13 42 0 14 -6
32 -14 40 -19 18 -36 81 -29 107 3 13 -5 35 -22 59 -19 28 -29 60 -35 108 -11
86 -17 100 -54 141 -35 36 -56 40 -80 13z m-26 -446 c23 -8 58 -31 78 -50 20
-19 40 -35 43 -35 4 0 10 -13 14 -29 3 -16 12 -34 19 -40 21 -18 50 -101 38
-113 -5 -5 -43 -12 -85 -15 l-75 -6 -56 53 c-65 62 -83 107 -61 151 8 15 15
39 15 52 0 12 5 28 12 35 15 15 7 15 58 -3z"/>
<path d="M9850 6905 c-25 -13 -25 -14 -25 -154 0 -168 -7 -183 -60 -131 -19
19 -35 39 -35 46 0 6 -8 22 -19 35 -10 13 -22 38 -25 56 -7 29 -65 93 -84 93
-4 0 -18 -7 -30 -16 -21 -14 -23 -22 -17 -67 3 -29 7 -66 9 -84 2 -17 12 -45
22 -61 55 -85 76 -114 92 -119 9 -3 26 -14 38 -25 12 -10 43 -21 72 -25 49 -5
51 -5 100 41 l49 46 11 -27 c13 -32 38 -153 48 -230 9 -73 -13 -119 -64 -132
-62 -15 -118 -8 -147 19 -15 14 -37 23 -57 23 -62 0 -104 -91 -53 -118 11 -6
31 -18 45 -27 14 -9 58 -24 99 -34 73 -16 76 -16 143 6 76 25 113 50 124 83 4
12 15 34 25 49 31 44 27 251 -6 302 -9 14 -14 30 -10 36 8 12 -11 70 -42 127
-13 23 -23 48 -23 56 0 8 -11 40 -25 71 -14 31 -25 67 -25 79 0 27 -63 97 -87
97 -10 -1 -29 -7 -43 -15z"/>
<path d="M7808 6748 c-12 -10 -17 -33 -19 -88 -3 -72 1 -93 42 -220 9 -30 20
-82 24 -115 4 -33 11 -65 16 -71 5 -6 14 -44 20 -85 6 -41 15 -81 20 -89 5 -8
13 -24 18 -35 20 -43 96 -113 136 -124 48 -13 82 -14 89 -3 3 5 19 7 35 4 33
-5 77 18 149 77 25 21 42 44 42 56 0 12 12 45 26 73 25 50 25 56 14 119 -13
79 -25 103 -79 164 -35 41 -48 48 -103 59 -89 18 -146 14 -190 -15 -20 -13
-48 -27 -62 -31 -23 -5 -26 -3 -26 21 0 15 -6 41 -14 58 -18 42 -38 136 -30
148 12 20 -55 109 -81 109 -6 0 -18 -6 -27 -12z m367 -398 c3 -5 16 -10 28
-10 38 -1 84 -50 92 -98 8 -51 -7 -89 -59 -144 -25 -28 -43 -38 -65 -38 -16 0
-36 -3 -45 -6 -10 -4 -29 7 -51 29 -31 31 -35 41 -35 88 0 29 8 79 17 111 14
48 21 58 40 58 12 0 25 5 28 10 3 6 15 10 25 10 10 0 22 -4 25 -10z"/>
<path d="M7543 6684 c-10 -15 -39 -50 -64 -78 -26 -28 -53 -67 -62 -86 -8 -19
-30 -53 -50 -74 -20 -21 -39 -51 -42 -65 -3 -15 -21 -43 -40 -64 -19 -21 -35
-45 -35 -53 0 -8 -12 -26 -27 -40 -24 -22 -28 -34 -28 -81 0 -48 4 -58 28 -79
15 -13 37 -24 48 -24 11 0 22 -7 26 -15 3 -9 20 -23 37 -32 17 -9 46 -29 64
-44 18 -16 39 -29 47 -29 8 0 26 -11 41 -25 15 -14 39 -28 53 -31 14 -4 37
-20 51 -36 21 -24 34 -30 74 -31 41 -2 51 2 68 24 29 39 16 63 -53 100 -32 18
-59 35 -59 40 0 9 -113 87 -146 99 -13 5 -27 17 -31 26 -3 9 -26 24 -50 35
-48 21 -50 34 -15 89 9 14 27 45 41 70 13 25 38 61 55 81 32 37 97 135 128
191 10 18 29 41 44 53 34 27 28 62 -15 88 -41 24 -67 21 -88 -9z"/>
<path d="M8725 6636 c-5 -2 -36 -12 -68 -21 -31 -9 -63 -25 -70 -35 -7 -10
-31 -26 -52 -34 -72 -29 -108 -140 -69 -214 8 -15 14 -33 14 -40 0 -28 45
-119 74 -150 17 -19 57 -47 89 -63 53 -27 65 -29 135 -25 42 2 83 5 90 5 35 2
152 151 152 194 0 17 5 45 12 62 9 28 8 39 -10 77 -12 24 -22 48 -22 52 0 13
-63 106 -71 106 -4 0 -10 8 -13 18 -9 27 -73 59 -131 65 -27 4 -54 4 -60 3z
m85 -167 c49 -56 70 -87 70 -106 0 -11 6 -28 14 -38 16 -23 5 -80 -21 -106
-28 -29 -108 -40 -157 -23 -53 19 -70 35 -100 100 -32 68 -33 89 -1 110 14 9
25 22 25 29 0 13 53 57 80 67 27 10 65 -3 90 -33z"/>
<path d="M4904 7919 c-14 -16 -20 -42 -24 -117 -5 -84 -2 -106 18 -167 13 -38
30 -77 38 -86 8 -8 14 -20 14 -26 0 -17 81 -73 105 -73 27 0 55 29 55 56 0 11
-13 38 -29 60 -16 22 -33 53 -37 69 -4 17 -13 39 -20 50 -9 13 -14 50 -14 108
0 84 -10 123 -34 139 -20 14 -53 8 -72 -13z"/>
<path d="M6758 2828 c-16 -5 -28 -15 -28 -22 0 -7 -9 -21 -20 -31 -22 -20 -26
-40 -10 -50 17 -11 98 36 103 59 2 11 8 29 12 39 8 20 -12 22 -57 5z"/>
<path d="M6878 2605 c-22 -29 -23 -55 -3 -55 14 0 55 54 55 73 0 17 -36 5 -52
-18z"/>
</g>
</svg>
